<svg version="1.1" id="Layer_1" xmlns="http://www.w3.org/2000/svg" xmlns:xlink="http://www.w3.org/1999/xlink" x="0px" y="0px"
	 width="100%" viewBox="0 0 500 500" enable-background="new 0 0 500 500" xml:space="preserve">
<path fill="#FFFFFF" opacity="1.000000" stroke="none" 
	d="
M1.000000,195.000000 
	C1.000000,130.016098 1.000000,65.532211 1.000000,1.024157 
	C167.608948,1.024157 334.217896,1.024157 500.913422,1.024157 
	C500.913422,167.567291 500.913422,334.134644 500.913422,500.851013 
	C334.333435,500.851013 167.666733,500.851013 1.000000,500.851013 
	C1.000000,399.115326 1.000000,297.307648 1.000000,195.000000 
M132.356949,463.752625 
	C179.214645,489.701691 229.253555,499.294800 282.405792,493.021362 
	C311.881958,489.542358 339.697815,480.814728 366.643982,467.008423 
	C389.839661,454.936218 410.722778,439.835907 428.735443,419.950623 
	C433.336243,414.957794 438.244171,410.212067 442.490417,404.933990 
	C485.129272,351.934357 502.915894,291.421387 496.765533,223.798584 
	C496.463104,220.473587 495.063293,217.248413 494.140839,213.127106 
	C493.675140,210.001556 493.342285,206.849472 492.724030,203.754410 
	C480.979736,144.958115 451.907074,96.392998 405.221161,58.931984 
	C349.830872,14.486526 286.185272,-2.561815 216.164062,7.480302 
	C152.097031,16.668495 99.690750,47.712914 59.307617,98.384605 
	C27.780594,137.943878 10.503613,183.323135 7.258769,233.705444 
	C5.009006,268.637207 9.891216,302.803467 22.345478,335.688812 
	C34.233097,367.077972 51.617115,395.020752 75.295898,419.721832 
	C83.368553,427.137177 90.957726,435.186981 99.639442,441.803131 
	C109.889069,449.614105 121.083336,456.185547 132.356949,463.752625 
z"/>
<path fill="#FFDD3C" opacity="1.000000" stroke="none" 
	d="
M75.038345,419.139343 
	C51.617115,395.020752 34.233097,367.077972 22.345478,335.688812 
	C9.891216,302.803467 5.009006,268.637207 7.258769,233.705444 
	C10.503613,183.323135 27.780594,137.943878 59.307617,98.384605 
	C99.690750,47.712914 152.097031,16.668495 216.164062,7.480302 
	C286.185272,-2.561815 349.830872,14.486526 405.221161,58.931984 
	C451.907074,96.392998 480.979736,144.958115 492.724030,203.754410 
	C493.342285,206.849472 493.675140,210.001556 493.830750,213.433456 
	C468.629822,194.802948 443.732544,175.874603 418.850037,156.926804 
	C394.361786,138.279236 369.928436,119.559158 345.364655,101.011719 
	C341.785706,98.309349 337.615479,96.390053 333.427429,93.966461 
	C326.041077,88.330650 319.323212,82.241585 311.776520,77.460800 
	C293.281097,65.744057 272.851746,59.024174 250.943375,59.263832 
	C226.742844,59.528557 204.709854,67.622208 184.773972,81.437599 
	C154.623123,102.331848 131.723129,139.654663 144.537674,182.666046 
	C148.698975,196.633270 146.786926,209.460770 134.826767,220.403046 
	C124.241844,230.087112 123.057167,244.684540 130.734909,256.511505 
	C136.422043,265.272125 138.146347,273.477325 134.670746,283.682831 
	C130.996674,294.471069 139.668518,304.585175 151.125534,304.029938 
	C155.030426,303.840698 159.098465,303.014862 162.714462,301.548798 
	C180.093536,294.502594 197.606949,290.506897 216.016693,297.903564 
	C216.019470,303.156006 215.895752,307.984161 216.051056,312.803345 
	C216.276764,319.808167 214.300873,326.218506 209.321121,330.940277 
	C205.459412,334.601898 200.444000,337.046783 195.548004,340.016541 
	C178.120331,345.361755 161.086044,350.722931 143.694855,356.191040 
	C136.970825,358.678070 130.351395,360.545074 124.281654,363.529907 
	C101.810074,374.580627 86.248695,392.068878 77.252258,415.435089 
	C76.742966,416.757874 75.786621,417.908539 75.038345,419.139343 
z"/>
<path fill="#FCC33D" opacity="1.000000" stroke="none" 
	d="
M333.718872,94.108406 
	C337.615479,96.390053 341.785706,98.309349 345.364655,101.011719 
	C369.928436,119.559158 394.361786,138.279236 418.850037,156.926804 
	C443.732544,175.874603 468.629822,194.802948 493.847565,213.858276 
	C495.063293,217.248413 496.463104,220.473587 496.765533,223.798584 
	C502.915894,291.421387 485.129272,351.934357 442.490417,404.933990 
	C438.244171,410.212067 433.336243,414.957794 428.122314,419.794006 
	C421.581573,403.081238 412.750275,388.407349 399.298492,376.845093 
	C390.433319,369.225189 380.902069,362.657928 369.078430,359.478485 
	C350.239685,353.167023 331.641602,347.125793 312.711700,340.913940 
	C310.505249,340.101532 308.651184,339.390289 306.752686,338.829468 
	C295.951935,335.638885 287.085083,324.803955 287.836487,312.682831 
	C288.162079,307.430176 287.547180,302.119171 287.736572,296.903687 
	C301.541534,292.421600 314.961823,293.020660 328.297882,297.263184 
	C333.837524,299.025452 339.148254,301.548096 344.734711,303.111877 
	C351.509796,305.008423 358.341736,305.253693 363.895996,299.753326 
	C369.532074,294.171844 370.182068,287.492554 367.462036,280.374725 
	C364.590912,272.861420 365.830811,266.150848 370.402679,259.639038 
	C375.460632,252.434875 377.656738,244.423141 376.103790,235.532898 
	C374.871155,228.476456 371.269012,222.764114 366.127716,218.089859 
	C358.139282,210.827133 355.394653,201.914352 356.883698,191.472122 
	C357.375946,188.020004 357.883270,184.553177 358.687103,181.165085 
	C363.966187,158.913467 362.471161,137.367966 350.778839,117.404572 
	C345.939972,109.142654 339.455139,101.844742 333.718872,94.108406 
z"/>
<path fill="#AE6AA9" opacity="1.000000" stroke="none" 
	d="
M313.043549,341.084564 
	C331.641602,347.125793 350.239685,353.167023 368.878845,359.822937 
	C361.597595,376.874603 358.426025,394.216949 358.084961,412.085022 
	C357.762970,428.954102 360.753021,445.352203 365.893921,461.401398 
	C366.428406,463.070007 365.927460,465.070312 365.906982,466.916687 
	C339.697815,480.814728 311.881958,489.542358 282.405792,493.021362 
	C229.253555,499.294800 179.214645,489.701691 132.243042,463.164795 
	C142.963669,441.503601 149.586060,419.184753 150.768967,395.506195 
	C151.444061,381.992706 148.961044,368.770630 144.051773,356.084076 
	C161.086044,350.722931 178.120331,345.361755 195.600494,340.362885 
	C198.790024,344.204010 201.137604,348.110870 204.349915,351.083160 
	C214.911057,360.855194 228.146759,364.427429 241.986160,366.197845 
	C269.869751,369.764984 293.611115,361.490387 313.043549,341.084564 
z"/>
<path fill="#EEC191" opacity="1.000000" stroke="none" 
	d="
M143.694855,356.191040 
	C148.961044,368.770630 151.444061,381.992706 150.768967,395.506195 
	C149.586060,419.184753 142.963669,441.503601 131.998596,462.935699 
	C121.083336,456.185547 109.889069,449.614105 99.639442,441.803131 
	C90.957726,435.186981 83.368553,427.137177 75.167114,419.430603 
	C75.786621,417.908539 76.742966,416.757874 77.252258,415.435089 
	C86.248695,392.068878 101.810074,374.580627 124.281654,363.529907 
	C130.351395,360.545074 136.970825,358.678070 143.694855,356.191040 
z"/>
<path fill="#EEC191" opacity="1.000000" stroke="none" 
	d="
M366.275482,466.962555 
	C365.927460,465.070312 366.428406,463.070007 365.893921,461.401398 
	C360.753021,445.352203 357.762970,428.954102 358.084961,412.085022 
	C358.426025,394.216949 361.597595,376.874603 369.119568,360.093201 
	C380.902069,362.657928 390.433319,369.225189 399.298492,376.845093 
	C412.750275,388.407349 421.581573,403.081238 427.787659,419.868958 
	C410.722778,439.835907 389.839661,454.936218 366.275482,466.962555 
z"/>
<path fill="#451E01" opacity="1.000000" stroke="none" 
	d="
M333.427429,93.966461 
	C339.455139,101.844742 345.939972,109.142654 350.778839,117.404572 
	C362.471161,137.367966 363.966187,158.913467 358.687103,181.165085 
	C357.883270,184.553177 357.375946,188.020004 356.883698,191.472122 
	C355.394653,201.914352 358.139282,210.827133 366.127716,218.089859 
	C371.269012,222.764114 374.871155,228.476456 376.103790,235.532898 
	C377.656738,244.423141 375.460632,252.434875 370.402679,259.639038 
	C365.830811,266.150848 364.590912,272.861420 367.462036,280.374725 
	C370.182068,287.492554 369.532074,294.171844 363.895996,299.753326 
	C358.341736,305.253693 351.509796,305.008423 344.734711,303.111877 
	C339.148254,301.548096 333.837524,299.025452 328.297882,297.263184 
	C314.961823,293.020660 301.541534,292.421600 287.779297,296.445801 
	C287.349365,291.951263 287.253784,287.983643 287.289124,283.696716 
	C288.237427,282.228882 288.968872,281.006256 289.885803,279.943665 
	C296.816040,271.912567 304.421753,264.371521 310.580170,255.790176 
	C318.720459,244.447235 322.828613,231.195908 325.087433,217.218643 
	C330.501984,217.643280 333.241608,214.407379 334.607269,210.037384 
	C336.038635,205.457275 337.605133,200.713104 337.771393,195.993378 
	C338.007477,189.290817 337.218689,182.518967 336.353333,175.843430 
	C336.208984,174.729904 333.282898,173.028717 331.950928,173.274185 
	C330.512115,173.539352 328.994843,175.586609 328.325439,177.195129 
	C327.662628,178.787796 328.081696,180.809052 327.908966,182.631210 
	C327.318237,188.862808 326.675934,195.089523 326.053314,201.318085 
	C325.599854,201.366501 325.146393,201.414917 324.692963,201.463318 
	C318.025208,189.710602 311.357483,177.957886 304.411316,165.714401 
	C302.780762,173.455429 301.266266,180.645462 299.818329,187.519394 
	C298.728729,187.743011 298.405792,187.866882 298.082672,187.867371 
	C265.614594,187.917343 233.146347,187.996567 200.679016,187.860748 
	C199.354706,187.855194 197.167404,186.017639 196.866638,184.695862 
	C195.395996,178.232559 194.429398,171.654556 193.381088,165.668304 
	C188.486084,176.135910 183.388565,187.036545 178.291061,197.937164 
	C177.747681,197.796570 177.204315,197.655960 176.660934,197.515366 
	C176.170105,191.969772 175.646317,186.426834 175.200592,180.877625 
	C174.926712,177.467682 175.667587,173.065857 170.601562,173.051422 
	C165.907257,173.038040 166.272156,177.723785 165.106949,180.806824 
	C164.880264,181.406601 164.852203,182.137985 164.926559,182.786407 
	C165.888107,191.171997 166.572144,199.606720 167.984985,207.917023 
	C168.893173,213.259003 171.750580,217.524551 178.170776,217.453949 
	C181.631927,238.793640 191.047668,256.790100 205.889465,271.975403 
	C209.245758,275.409363 212.796295,278.653503 216.183868,282.447845 
	C216.078522,287.765533 216.046707,292.620422 216.014893,297.475281 
	C197.606949,290.506897 180.093536,294.502594 162.714462,301.548798 
	C159.098465,303.014862 155.030426,303.840698 151.125534,304.029938 
	C139.668518,304.585175 130.996674,294.471069 134.670746,283.682831 
	C138.146347,273.477325 136.422043,265.272125 130.734909,256.511505 
	C123.057167,244.684540 124.241844,230.087112 134.826767,220.403046 
	C146.786926,209.460770 148.698975,196.633270 144.537674,182.666046 
	C131.723129,139.654663 154.623123,102.331848 184.773972,81.437599 
	C204.709854,67.622208 226.742844,59.528557 250.943375,59.263832 
	C272.851746,59.024174 293.281097,65.744057 311.776520,77.460800 
	C319.323212,82.241585 326.041077,88.330650 333.427429,93.966461 
z"/>
<path fill="#EEC191" opacity="1.000000" stroke="none" 
	d="
M287.158203,284.015991 
	C287.253784,287.983643 287.349365,291.951263 287.402222,296.376801 
	C287.547180,302.119171 288.162079,307.430176 287.836487,312.682831 
	C287.085083,324.803955 295.951935,335.638885 306.752686,338.829468 
	C308.651184,339.390289 310.505249,340.101532 312.711700,340.913940 
	C293.611115,361.490387 269.869751,369.764984 241.986160,366.197845 
	C228.146759,364.427429 214.911057,360.855194 204.349915,351.083160 
	C201.137604,348.110870 198.790024,344.204010 195.993912,340.378845 
	C200.444000,337.046783 205.459412,334.601898 209.321121,330.940277 
	C214.300873,326.218506 216.276764,319.808167 216.051056,312.803345 
	C215.895752,307.984161 216.019470,303.156006 216.016678,297.903564 
	C216.046707,292.620422 216.078522,287.765533 216.515869,282.496338 
	C220.640671,284.541534 224.114700,287.551819 228.132553,289.340729 
	C235.472534,292.608734 242.929382,296.359070 250.715866,297.683228 
	C259.635498,299.200165 267.666718,294.262634 275.436615,290.069519 
	C279.305878,287.981415 283.248688,286.029510 287.158203,284.015991 
z"/>
<path fill="#FACA97" opacity="1.000000" stroke="none" 
	d="
M287.289124,283.696716 
	C283.248688,286.029510 279.305878,287.981415 275.436615,290.069519 
	C267.666718,294.262634 259.635498,299.200165 250.715866,297.683228 
	C242.929382,296.359070 235.472534,292.608734 228.132553,289.340729 
	C224.114700,287.551819 220.640671,284.541534 216.589417,282.033508 
	C212.796295,278.653503 209.245758,275.409363 205.889465,271.975403 
	C191.047668,256.790100 181.631927,238.793640 178.170776,217.453949 
	C171.750580,217.524551 168.893173,213.259003 167.984985,207.917023 
	C166.572144,199.606720 165.888107,191.171997 164.926559,182.786407 
	C164.852203,182.137985 164.880264,181.406601 165.106949,180.806824 
	C166.272156,177.723785 165.907257,173.038040 170.601562,173.051422 
	C175.667587,173.065857 174.926712,177.467682 175.200592,180.877625 
	C175.646317,186.426834 176.170105,191.969772 176.660934,197.515366 
	C177.204315,197.655960 177.747681,197.796570 178.291061,197.937164 
	C183.388565,187.036545 188.486084,176.135910 193.381088,165.668304 
	C194.429398,171.654556 195.395996,178.232559 196.866638,184.695862 
	C197.167404,186.017639 199.354706,187.855194 200.679016,187.860748 
	C233.146347,187.996567 265.614594,187.917343 298.082672,187.867371 
	C298.405792,187.866882 298.728729,187.743011 299.818329,187.519394 
	C301.266266,180.645462 302.780762,173.455429 304.411316,165.714401 
	C311.357483,177.957886 318.025208,189.710602 324.692963,201.463318 
	C325.146393,201.414917 325.599854,201.366501 326.053314,201.318085 
	C326.675934,195.089523 327.318237,188.862808 327.908966,182.631210 
	C328.081696,180.809052 327.662628,178.787796 328.325439,177.195129 
	C328.994843,175.586609 330.512115,173.539352 331.950928,173.274185 
	C333.282898,173.028717 336.208984,174.729904 336.353333,175.843430 
	C337.218689,182.518967 338.007477,189.290817 337.771393,195.993378 
	C337.605133,200.713104 336.038635,205.457275 334.607269,210.037384 
	C333.241608,214.407379 330.501984,217.643280 325.087433,217.218643 
	C322.828613,231.195908 318.720459,244.447235 310.580170,255.790176 
	C304.421753,264.371521 296.816040,271.912567 289.885803,279.943665 
	C288.968872,281.006256 288.237427,282.228882 287.289124,283.696716 
z"/>
</svg>