<svg version="1.1" id="Layer_1" xmlns="http://www.w3.org/2000/svg" xmlns:xlink="http://www.w3.org/1999/xlink" x="0px" y="0px"
	 width="100%" viewBox="0 0 442 391" enable-background="new 0 0 442 391" xml:space="preserve">
<path fill="#FFFFFF" opacity="1.000000" stroke="none" 
	d="
M226.000000,392.000000 
	C152.000015,392.000000 78.499962,391.969513 5.000192,392.096283 
	C1.575753,392.102203 0.901897,391.423889 0.904920,387.999939 
	C1.017657,260.333405 1.017656,132.666718 0.904934,5.000157 
	C0.901911,1.576445 1.576066,0.902503 4.999999,0.905118 
	C149.666565,1.015600 294.333221,1.015593 438.999817,0.905145 
	C442.423309,0.902531 443.098114,1.575832 443.095093,4.999957 
	C442.982361,132.666504 442.982361,260.333191 443.095062,387.999725 
	C443.098083,391.423218 442.424957,392.102631 439.000000,392.096436 
	C368.166840,391.968384 297.333405,392.000000 226.000000,392.000000 
z"/>
<path fill="#8CBE78" opacity="1.000000" stroke="none" 
	d="
M251.072433,229.614288 
	C250.203171,233.250092 249.772537,236.764221 247.347885,239.604279 
	C246.428329,240.681381 244.920898,242.568527 248.606323,242.544113 
	C250.664764,242.530487 251.274292,247.229919 249.618408,249.115738 
	C243.648453,255.914551 243.790359,259.276306 250.595184,266.097412 
	C251.156708,270.087738 248.439728,272.439178 244.149475,271.873932 
	C241.530396,271.528809 238.902023,270.745453 236.787827,269.163391 
	C232.974731,266.310028 228.571838,265.079651 223.770264,263.730042 
	C221.039261,260.047180 219.755783,255.996170 217.179611,252.432602 
	C212.820953,246.403442 206.758530,242.776764 201.118515,238.485031 
	C199.563782,237.301987 197.688934,235.903656 195.681046,237.371643 
	C193.864365,238.699860 194.809784,240.729462 195.094131,242.487015 
	C196.048859,248.388016 199.057602,253.309357 202.561676,258.348267 
	C202.233444,259.961517 201.479340,260.917969 200.172333,261.882202 
	C197.988541,261.812347 196.677475,260.655975 196.041718,259.114746 
	C193.983795,254.125748 189.705276,251.496613 185.383804,249.067444 
	C179.502548,245.761459 174.931519,241.481903 172.851669,234.898071 
	C172.332260,233.253876 171.349792,232.062653 169.813873,231.135284 
	C164.131027,227.704163 158.813736,223.795197 154.792175,218.401260 
	C153.810287,217.084274 152.234070,216.923126 150.996460,216.118851 
	C149.465057,215.123657 148.972626,214.066238 150.278030,212.466324 
	C151.488129,210.983261 152.574036,210.635818 153.832687,212.332214 
	C155.094910,214.033417 156.437729,215.077744 158.286621,212.456360 
	C159.460922,210.663834 161.060974,210.830185 162.510223,210.780090 
	C164.748627,210.702713 165.646286,209.291428 167.057083,207.722015 
	C170.515335,203.874908 172.415466,200.267334 171.259430,194.760544 
	C170.598572,191.612503 174.126343,190.568954 176.959320,190.898254 
	C180.622025,191.324005 183.369568,190.517624 185.428345,187.210846 
	C187.289429,184.221649 189.739716,183.232941 192.794098,186.076080 
	C194.949524,188.082443 197.083984,187.507706 199.541641,185.987976 
	C203.080093,183.799911 205.893417,180.647446 209.630203,178.784286 
	C210.865631,178.168304 211.011780,177.009628 211.150787,175.845184 
	C211.477631,173.107559 212.725311,170.907990 214.575516,168.837875 
	C218.667236,164.259842 219.957397,163.846054 225.064667,167.029663 
	C227.905472,168.800461 230.536911,169.198273 233.399872,167.280228 
	C234.515701,166.532669 235.794006,166.107101 237.164398,166.138626 
	C243.104355,166.275284 248.061279,163.650925 252.883148,160.606796 
	C255.164185,159.166733 257.487915,157.780930 260.488037,159.831421 
	C262.205231,161.342148 261.829468,163.063156 259.426331,163.366547 
	C256.098328,163.786697 257.193970,165.341339 258.354797,166.500259 
	C262.135742,170.274902 262.260681,174.832687 261.348145,179.790466 
	C258.292847,184.949966 255.721313,190.050247 252.759003,194.912445 
	C251.454437,197.053696 254.356644,197.569534 253.786865,199.237579 
	C252.159912,204.000565 253.356003,208.714066 254.066925,213.450027 
	C254.356552,215.379242 254.732620,217.084305 251.388733,217.239700 
	C248.786774,217.360596 250.604904,218.755325 251.981171,219.659210 
	C253.045731,220.986191 252.912140,222.102066 252.161118,223.515533 
	C251.820053,223.972733 251.668686,224.141373 251.272736,224.535461 
	C249.220291,226.246475 250.309753,227.785629 251.072433,229.614288 
z"/>
<path fill="#018D97" opacity="1.000000" stroke="none" 
	d="
M260.793091,159.723724 
	C255.436539,158.521576 252.348770,163.234283 248.122955,164.732559 
	C244.436111,166.039734 240.136200,166.071167 237.181519,167.528885 
	C230.872330,170.641602 226.093292,169.993988 220.895996,166.095428 
	C220.153427,165.538422 218.583160,165.838654 217.718613,166.877930 
	C216.136734,168.779480 213.262894,170.680252 213.235443,172.614120 
	C213.119476,180.780090 205.985779,182.094360 201.446381,185.999130 
	C197.589783,189.316574 194.354004,190.973373 190.711853,185.542496 
	C189.449173,183.659714 187.463486,185.979416 186.852707,187.165405 
	C184.611008,191.518372 181.715714,193.335617 176.604584,192.113022 
	C172.464706,191.122757 171.410263,193.863464 172.222656,197.530533 
	C172.577423,199.131943 172.867615,200.749725 173.281189,202.335526 
	C173.739273,204.092072 174.994049,206.196472 171.310944,204.628769 
	C170.208481,204.159515 168.267471,205.321701 168.315842,206.595154 
	C168.602356,214.137268 163.029099,211.509140 158.853165,212.076859 
	C157.283432,209.413452 154.221664,207.735596 154.617126,204.080307 
	C154.809509,202.301971 153.097946,202.912643 152.221146,203.582306 
	C150.149231,205.164795 150.216980,203.099197 149.262161,201.996643 
	C146.435104,200.066391 145.658218,197.819092 146.706238,194.869202 
	C147.816650,191.743668 146.600571,190.245422 143.270172,189.909149 
	C139.480011,189.526489 135.797562,187.379364 131.938110,190.049454 
	C130.748154,190.872696 129.095612,190.283844 127.787743,189.229340 
	C124.550415,186.619080 120.715889,184.805145 117.663612,181.963760 
	C114.584114,179.097015 111.201782,176.822205 106.986786,175.189117 
	C109.635727,171.084442 110.996628,166.974457 109.910492,162.102646 
	C109.498428,160.254318 110.508629,158.341827 112.365082,157.584473 
	C120.270599,154.359283 125.684036,147.826492 132.253082,142.834198 
	C132.919174,142.328003 133.588165,141.849915 134.776306,141.803085 
	C136.781174,142.846420 138.037750,143.482193 139.761322,141.440536 
	C144.286453,136.080322 146.812561,136.234360 153.118851,139.104263 
	C155.834488,140.340118 159.399170,138.750824 162.805817,139.726242 
	C169.338470,141.596741 176.059525,138.209229 182.856689,139.591660 
	C184.909897,140.009247 186.671005,137.079025 189.432739,136.704559 
	C194.498154,136.017731 199.209137,134.791061 204.439377,136.854782 
	C207.181671,137.936829 211.017258,137.939468 213.908768,135.529724 
	C215.050873,134.577896 216.616180,134.558441 217.712814,135.070847 
	C220.377701,136.316025 222.821960,138.024811 225.434128,139.396347 
	C226.254883,139.827271 227.547638,140.225601 228.248917,139.879059 
	C233.321152,137.372742 236.773956,139.739578 239.915497,143.740173 
	C241.431061,144.167908 241.819626,145.666351 242.904633,146.660278 
	C242.732056,147.634048 242.318451,148.163147 241.655304,148.852661 
	C241.145050,149.058365 240.973923,149.190720 240.934494,149.438889 
	C240.895126,149.686768 241.036484,149.709610 241.653244,149.470444 
	C244.298050,152.065277 247.369690,152.393295 250.942261,152.019226 
	C251.695801,151.745834 252.135437,151.610214 252.923828,151.420563 
	C253.741989,151.334152 254.196198,151.417542 254.809036,151.918854 
	C258.357513,153.447067 258.867645,157.011185 260.793091,159.723724 
z"/>
<path fill="#0160A7" opacity="1.000000" stroke="none" 
	d="
M135.091370,141.577667 
	C127.711426,147.436493 121.941643,155.112137 112.965973,158.574860 
	C110.022072,159.710602 110.471252,162.724670 111.221596,164.552689 
	C113.184357,169.334503 110.944466,171.979355 107.164825,174.598404 
	C105.144028,176.623734 102.900604,177.762695 102.186829,180.743301 
	C101.649391,182.987549 99.576225,185.210724 97.077065,185.759323 
	C93.154129,186.620499 90.940201,189.404907 88.269318,192.326630 
	C80.976692,189.737595 73.834000,188.485275 66.162636,188.938553 
	C56.626194,189.502045 49.322807,183.837982 42.091953,178.519180 
	C41.026665,177.735596 40.197021,176.628281 39.122147,175.861755 
	C36.598545,174.062042 34.374996,173.057541 36.446571,168.679657 
	C37.757771,165.908707 35.881851,161.531998 38.581017,158.391846 
	C38.658253,158.302002 38.366562,157.752426 38.130905,157.557281 
	C33.472267,153.699417 36.856453,150.367462 38.818718,146.958099 
	C41.626484,142.079681 43.364662,135.361862 47.589466,132.867233 
	C51.809090,130.375671 58.528305,132.085083 64.152496,132.014938 
	C68.477364,131.960983 72.805840,131.916962 77.128014,132.037155 
	C79.488953,132.102798 80.343544,131.443695 80.100204,128.885483 
	C79.714325,124.828964 78.383904,125.558784 75.679955,120.043083 
	C71.737267,112.000504 62.160542,110.923912 58.315060,103.445892 
	C57.896694,102.632324 56.400337,102.373093 55.483246,101.897820 
	C55.476463,101.040314 55.964977,101.001137 56.450855,100.988853 
	C65.956161,100.748497 66.210541,100.740341 65.869156,90.978729 
	C65.718140,86.660942 67.090149,85.825531 71.119431,85.908279 
	C84.423210,86.181488 97.735817,86.025452 111.510895,86.071640 
	C113.757950,87.849403 113.346123,90.123009 113.367180,92.236137 
	C113.486603,104.223640 113.285789,116.200462 112.117538,128.147018 
	C111.527985,134.175842 111.759125,134.435913 117.681778,136.692337 
	C123.323616,138.695694 123.323616,138.695694 125.506599,141.634232 
	C127.957970,140.818298 126.265327,136.537704 128.482376,136.844131 
	C130.887924,137.176590 134.004395,138.084808 135.091370,141.577667 
z"/>
<path fill="#F37A8F" opacity="1.000000" stroke="none" 
	d="
M346.172180,307.312927 
	C350.020630,300.329346 352.724213,299.006744 359.442871,300.371338 
	C360.898102,300.666901 362.385956,300.798401 363.848633,301.061829 
	C365.367218,301.335388 367.852417,299.402496 367.943024,303.208466 
	C367.962006,304.005249 371.208984,304.037079 373.054504,304.032532 
	C384.246368,304.005005 393.424622,308.036987 400.117065,317.305939 
	C401.233521,318.852142 403.232910,319.729126 404.562439,321.158844 
	C409.664276,326.645020 410.459259,334.186340 413.649445,340.593903 
	C413.951996,341.201569 414.199554,342.262451 413.600891,342.349670 
	C409.149963,342.998230 409.519226,347.500824 407.468323,350.023193 
	C405.225311,352.781891 403.925781,353.933838 402.292175,349.822937 
	C402.028595,349.159729 401.281494,349.057495 400.145660,349.361511 
	C403.486694,354.535370 395.566589,355.224823 396.188751,359.831177 
	C391.874146,356.273407 388.931091,351.848206 386.112152,347.337280 
	C385.152252,345.801239 384.314270,344.171844 383.595032,342.509613 
	C383.220367,341.643677 383.225006,340.613556 383.058289,339.657593 
	C388.200928,339.386047 385.712128,333.425903 389.006531,331.403809 
	C389.053925,331.066345 389.405884,330.821991 389.405884,330.821991 
	C389.405884,330.821991 389.035553,330.570068 388.824585,330.637695 
	C387.306702,330.660553 386.455200,328.116669 385.284363,329.381073 
	C381.452026,333.519745 381.368866,329.124573 380.617249,327.339386 
	C378.251068,321.719391 366.204773,313.975769 360.060730,314.141815 
	C356.610626,314.235016 354.842499,317.441559 351.703491,318.092865 
	C347.636230,318.936768 349.077911,322.621216 348.804199,325.083313 
	C348.643402,326.529663 347.869995,325.885956 347.452484,326.214325 
	C343.418701,329.387085 339.298553,332.199371 333.997620,333.174438 
	C330.151825,333.881775 329.622528,337.182159 332.410797,340.148010 
	C335.358429,343.283386 338.294342,346.430176 341.204742,349.600098 
	C342.229614,350.716339 343.289520,352.030151 342.815643,353.583069 
	C342.263000,355.394012 340.352661,355.279938 338.988708,355.102997 
	C336.309509,354.755432 334.737671,355.629333 333.388885,358.009521 
	C332.137451,360.217957 323.344452,361.369476 320.962006,360.085083 
	C319.808624,359.463318 320.050140,358.531952 320.029602,357.546478 
	C319.978149,355.079895 319.386475,352.760376 317.437134,350.865845 
	C316.902527,349.667236 317.029327,348.257233 316.541229,347.108490 
	C316.111664,346.097382 316.761597,344.240570 314.596863,344.202332 
	C311.987457,344.156158 312.655334,346.561493 312.688843,347.413727 
	C312.791809,350.031738 312.090424,350.054626 309.854553,349.411865 
	C306.417572,348.423828 303.617615,347.493042 302.489105,343.331329 
	C301.042267,337.995789 296.737274,335.331177 291.332092,335.178009 
	C289.007233,335.112091 287.371643,334.354889 285.410553,332.968811 
	C283.300201,337.138977 280.696259,333.364746 278.905060,333.205627 
	C271.306244,332.530487 271.336731,332.187439 270.543274,340.219788 
	C269.078674,337.435028 269.134003,334.465057 266.413635,332.802429 
	C264.876770,329.383148 268.270203,329.819275 269.549103,328.232666 
	C270.879639,326.969666 270.808868,325.810791 269.928833,324.310089 
	C269.256195,323.163239 268.300690,321.949036 268.908020,321.313629 
	C272.385345,317.675476 270.243225,315.373505 267.618713,312.492859 
	C265.681793,310.366943 267.689728,301.697479 270.018677,299.890289 
	C272.622498,297.869812 274.674683,300.255768 277.241516,301.096130 
	C280.302155,301.853516 282.371857,303.164001 283.157043,306.104584 
	C284.295563,310.368103 284.674805,310.531250 289.539185,309.538391 
	C284.836182,312.910095 286.087769,316.768280 291.909027,316.758606 
	C293.835571,316.755402 295.662598,315.597748 297.716095,316.434601 
	C297.716095,315.861542 297.810760,315.520477 297.700653,315.269104 
	C297.005524,313.682007 293.567627,312.629303 294.876953,311.374725 
	C296.924377,309.412872 298.077667,313.107391 298.786865,314.046173 
	C302.001770,318.301819 305.775604,321.274445 311.164154,320.738495 
	C316.031952,320.254395 320.931030,319.354858 324.684113,315.484711 
	C325.760101,314.375183 327.627838,314.031036 329.135925,313.343414 
	C334.446136,310.922485 340.378571,310.005249 345.675415,306.816162 
	C346.834045,309.405853 344.289154,310.596313 343.953003,312.606812 
	C347.051544,311.417236 347.051544,311.417236 346.172180,307.312927 
z"/>
<path fill="#EDBA6E" opacity="1.000000" stroke="none" 
	d="
M271.231873,328.570068 
	C269.456818,329.982117 267.417908,330.282806 266.202362,332.248962 
	C265.211426,332.624268 264.104797,332.020844 264.312531,331.357819 
	C265.851410,326.446228 262.614594,324.833893 259.143738,323.020752 
	C258.157471,322.505524 257.530151,321.872314 256.714111,322.776489 
	C255.806854,323.781708 256.714355,324.705261 257.337555,325.351044 
	C258.115112,326.156738 259.500946,326.383545 259.821442,327.644653 
	C260.018372,328.419617 260.220062,329.373688 259.940491,330.048920 
	C259.473785,331.176056 258.550171,330.287903 257.848389,330.122864 
	C256.240356,329.744720 254.425186,329.640289 253.103455,328.789093 
	C250.912628,327.378174 247.728058,326.102844 250.814438,322.423615 
	C254.269913,318.304413 251.961670,314.611664 248.951187,311.694489 
	C243.930069,306.828949 237.817261,303.638489 230.979980,302.066223 
	C227.582779,301.285004 225.303268,300.370087 225.830170,295.922394 
	C226.093124,293.702759 224.441620,291.214020 221.736877,289.944061 
	C219.064743,288.689423 216.729675,286.733185 214.113663,285.333344 
	C213.259109,284.876068 211.732300,284.444305 211.109451,285.958954 
	C210.627960,287.129944 211.596695,287.727112 212.433884,288.302917 
	C212.699661,288.485748 212.864944,288.808044 213.113205,289.024048 
	C215.209442,290.847961 219.859970,290.540070 219.297607,294.259247 
	C218.948746,296.566406 216.003006,298.480927 213.729004,301.151764 
	C211.594147,295.489319 207.188904,293.612793 201.782028,292.073547 
	C194.977722,290.136505 193.981461,280.273163 199.313904,275.380737 
	C201.491028,273.383301 200.645706,270.806183 198.728836,269.258057 
	C197.645737,268.383331 196.279480,267.688324 194.810150,266.377960 
	C197.033142,265.699158 198.563065,264.376587 199.742249,262.305054 
	C199.914093,260.898773 200.392517,259.967529 201.535706,259.060303 
	C205.223953,257.625946 207.917419,260.131958 211.318115,260.789185 
	C214.744247,262.567688 217.727081,264.760925 222.209656,263.000977 
	C228.208313,263.015472 232.975464,264.352325 237.117935,268.065094 
	C241.993149,272.434601 247.648590,271.826630 250.874283,266.668182 
	C252.518097,267.287018 252.550354,269.080048 252.971481,270.626953 
	C255.079193,278.369202 258.520416,285.155670 265.898376,289.230988 
	C266.312134,289.459534 266.805695,289.797089 266.961761,290.200165 
	C268.929962,295.284637 272.952728,298.227112 277.572784,300.905701 
	C277.083710,301.438812 276.622253,301.744568 276.160126,301.745575 
	C274.143066,301.750031 272.121765,297.558075 270.119080,301.706604 
	C266.844513,308.489868 267.101715,312.259491 271.462311,314.491486 
	C274.300537,315.944244 274.676880,316.688477 272.046997,318.776550 
	C270.856903,319.721466 268.401550,321.189331 270.931091,323.744171 
	C271.804413,325.357422 271.393616,326.795013 271.231873,328.570068 
z"/>
<path fill="#88449A" opacity="1.000000" stroke="none" 
	d="
M118.009811,136.560913 
	C110.017250,137.092987 109.903191,136.620163 110.762108,128.279160 
	C112.173271,114.575127 112.124252,100.797653 111.972366,86.570145 
	C111.874367,81.931610 113.095711,80.165421 117.392403,82.725365 
	C120.722855,84.709618 122.057022,81.240677 122.880112,79.517281 
	C124.283958,76.577881 126.551620,74.152481 127.602867,71.079750 
	C128.562378,68.275162 130.494705,67.761665 133.569443,68.491356 
	C131.764496,70.924500 131.197037,72.642670 135.359360,72.320610 
	C141.023254,71.882355 139.149918,76.229286 138.595734,78.843269 
	C137.920380,82.028809 135.976883,84.937103 135.220963,88.117218 
	C134.793152,89.916962 132.224731,92.316330 135.694641,94.049263 
	C136.799225,94.600906 135.561829,94.925446 135.290405,95.323013 
	C132.870972,98.866653 133.820557,102.421432 134.725204,106.258217 
	C135.569550,109.839226 133.939209,113.413971 133.085434,116.984291 
	C131.345886,124.258728 124.644989,127.122314 120.351875,132.103317 
	C119.280411,133.346481 117.726662,134.214005 118.009811,136.560913 
z"/>
<path fill="#02AFEF" opacity="1.000000" stroke="none" 
	d="
M88.242447,192.738968 
	C89.077545,188.404831 91.426170,185.622238 95.879181,184.974991 
	C99.170212,184.496613 101.870949,180.746140 101.617599,179.404892 
	C100.722687,174.667099 104.140518,175.800323 106.561066,174.906174 
	C112.124763,174.908112 115.706520,178.184998 118.952698,181.495346 
	C122.008186,184.611252 126.448105,185.530441 129.303513,188.929550 
	C130.238892,190.043045 132.851135,189.466644 133.794586,188.263687 
	C135.979095,185.478302 137.954193,186.333618 139.981415,188.067276 
	C141.183304,189.095123 142.348343,188.846603 143.692261,188.708206 
	C147.384262,188.327972 149.721298,191.062683 148.134140,194.341156 
	C146.837692,197.019150 147.252701,199.016251 148.883316,201.486969 
	C147.689926,202.703629 146.449234,201.491135 145.191101,201.779282 
	C146.600586,205.812790 144.350555,208.473160 140.070450,208.062256 
	C136.656219,207.734482 133.160339,207.639771 129.800583,207.628021 
	C125.098572,207.611572 121.176926,206.166718 117.433327,203.933060 
	C111.908485,200.636658 106.044456,198.921036 99.641899,199.009720 
	C97.585197,199.038193 95.836563,198.879242 94.603180,196.748978 
	C93.312889,194.520432 90.778374,193.830032 88.242447,192.738968 
z"/>
<path fill="#FBFCFA" opacity="1.000000" stroke="none" 
	d="
M240.745697,149.108063 
	C240.423462,147.322708 241.157562,147.013184 242.605194,146.997437 
	C247.259369,147.628128 252.168289,146.671982 254.961243,151.837723 
	C254.579712,152.207047 254.168564,152.195175 253.456924,152.113464 
	C252.989761,152.157822 252.823105,152.272018 252.368546,152.480804 
	C250.458344,153.296387 249.112534,156.346878 247.069412,152.735077 
	C246.140350,151.092697 245.381042,151.786438 245.527191,153.643616 
	C245.567932,154.161331 244.113876,154.276840 243.416061,153.764053 
	C242.712341,153.246918 241.759109,152.795395 242.853836,151.551941 
	C243.629684,150.670685 242.898529,150.137283 241.490585,150.302933 
	C240.963654,150.115555 240.787994,149.844620 240.745697,149.108063 
z"/>
<path fill="#F37A8F" opacity="1.000000" stroke="none" 
	d="
M302.230469,357.706451 
	C299.846710,357.740753 298.230988,356.664581 296.809143,355.226807 
	C295.705322,354.110626 295.656403,352.828613 296.572449,351.650757 
	C297.153168,350.904083 298.035919,349.962372 299.021454,350.354889 
	C300.103546,350.785828 300.953491,352.150146 300.440460,353.153015 
	C299.118256,355.737366 302.743317,355.677063 302.230469,357.706451 
z"/>
<path fill="#E9F0F5" opacity="1.000000" stroke="none" 
	d="
M251.418579,229.780212 
	C247.940903,227.555527 247.608170,225.416519 250.635559,223.892242 
	C252.287643,224.837631 252.801605,226.004929 252.204346,227.852722 
	C251.853302,228.671844 251.744751,229.160019 251.418579,229.780212 
z"/>
<path fill="#F37A8F" opacity="1.000000" stroke="none" 
	d="
M371.340088,333.002075 
	C367.959717,333.703888 369.340118,331.412628 369.244751,330.159363 
	C369.191254,329.457062 369.965240,328.939789 370.626556,329.140930 
	C372.752045,329.787415 371.971069,331.359314 371.340088,333.002075 
z"/>
<path fill="#8CBE78" opacity="1.000000" stroke="none" 
	d="
M252.347504,228.160049 
	C251.687653,227.018173 251.413422,225.852661 251.079239,224.330536 
	C251.019272,223.973892 250.997742,223.999954 250.985352,224.011475 
	C251.699020,223.476807 252.474838,223.025650 253.646255,222.950897 
	C253.517868,224.792343 257.443268,227.501755 252.347504,228.160049 
z"/>
<path fill="#88449A" opacity="1.000000" stroke="none" 
	d="
M143.646729,78.957672 
	C144.054260,78.494591 144.235184,78.223190 144.374466,77.931877 
	C144.442612,77.789307 144.378189,77.512596 144.467545,77.461876 
	C145.363144,76.953667 145.034775,77.801727 144.918182,77.974617 
	C143.923599,79.449356 144.387711,81.690178 142.426529,82.674423 
	C141.585861,81.171722 143.155029,80.333275 143.646729,78.957672 
z"/>
<path fill="#F9B6BF" opacity="1.000000" stroke="none" 
	d="
M317.019226,350.976990 
	C316.521393,353.456696 314.369049,353.149231 311.987152,354.032471 
	C313.096008,351.588348 314.556458,351.082184 316.676514,350.984192 
	C317.042999,350.963684 316.998352,350.997498 317.019226,350.976990 
z"/>
<path fill="#E9F0F5" opacity="1.000000" stroke="none" 
	d="
M253.964325,222.790787 
	C253.160370,223.434402 252.383942,223.742126 251.290237,224.036423 
	C251.423050,222.897339 251.873138,221.771683 252.301849,220.267639 
	C255.509293,218.971161 253.406845,221.609375 253.964325,222.790787 
z"/>
<path fill="#88449A" opacity="1.000000" stroke="none" 
	d="
M152.161499,97.793076 
	C152.887939,96.896599 153.291351,95.420509 154.464310,96.306953 
	C155.272339,96.917603 154.296677,97.799408 153.973175,98.428299 
	C153.173950,99.982063 152.569885,99.208679 152.161499,97.793076 
z"/>
<path fill="#FBFCFA" opacity="1.000000" stroke="none" 
	d="
M212.084503,262.162903 
	C208.655472,260.948364 205.619263,259.965210 202.194611,258.931976 
	C197.694260,254.011185 194.904144,248.582275 193.841446,242.182739 
	C193.385452,239.436813 192.293289,236.797333 195.625183,235.455948 
	C198.694016,234.220459 200.918564,236.656097 202.941788,238.283813 
	C204.293152,239.371017 205.170715,240.599792 207.105804,241.252594 
	C212.764389,243.161514 222.930893,257.304321 222.774185,262.554382 
	C222.872375,262.949951 222.931961,262.996857 222.957123,262.968506 
	C219.358383,265.110260 215.945129,263.226990 212.084503,262.162903 
z"/>
<path fill="#F6FAF4" opacity="1.000000" stroke="none" 
	d="
M176.216568,229.007980 
	C178.143692,227.646561 180.151062,226.556305 182.223587,225.608475 
	C183.511856,225.019302 184.348053,225.666946 184.958206,226.882339 
	C185.455109,227.872147 186.310516,229.612518 186.764252,229.538208 
	C189.197968,229.139633 189.094666,230.497787 188.918671,232.065811 
	C188.644623,234.507248 186.522415,233.923172 185.079178,234.271103 
	C182.511765,234.890045 183.591675,233.391113 183.809296,232.114166 
	C183.988464,231.062836 183.029587,230.733887 182.183014,231.266342 
	C179.406509,233.012573 178.036835,230.699127 176.216568,229.007980 
z"/>
<path fill="#F6FAF4" opacity="1.000000" stroke="none" 
	d="
M260.998840,179.961700 
	C259.626587,180.183365 258.907379,179.654434 259.128418,178.187363 
	C259.190826,177.773178 259.324097,177.217789 259.989685,177.431152 
	C260.927582,177.731827 260.873505,178.578735 260.965729,179.677521 
	C260.947235,180.027527 260.974487,179.976913 260.998840,179.961700 
z"/>
<path fill="#E9F0F5" opacity="1.000000" stroke="none" 
	d="
M147.923340,161.071564 
	C148.472565,159.049377 149.784012,158.979507 151.618256,159.443573 
	C150.265442,160.165344 149.155151,160.757736 147.923340,161.071564 
z"/>
<path fill="#FFFFFF" opacity="1.000000" stroke="none" 
	d="
M240.590210,148.601532 
	C240.921371,148.933212 240.963669,149.223984 241.072662,149.950623 
	C240.503128,151.420349 239.630630,151.176636 239.268738,150.375000 
	C238.975952,149.726456 238.395966,148.257446 240.590210,148.601532 
z"/>
<path fill="#E9F0F5" opacity="1.000000" stroke="none" 
	d="
M239.970947,144.072296 
	C239.798111,144.879913 239.641861,145.713974 239.485626,146.548035 
	C239.248505,146.364059 238.957230,146.220642 238.783768,145.988998 
	C238.081192,145.050781 238.090683,144.293289 239.720779,144.042984 
	C240.038208,144.135254 239.987549,144.098724 239.970947,144.072296 
z"/>
<path fill="#FFFFFF" opacity="1.000000" stroke="none" 
	d="
M252.302414,152.608063 
	C252.261261,152.359879 252.485504,152.209381 252.954910,152.083786 
	C253.047379,152.350403 252.836639,152.549438 252.302414,152.608063 
z"/>
<path fill="#E9F0F5" opacity="1.000000" stroke="none" 
	d="
M107.779465,150.394424 
	C106.913483,148.443787 105.284019,146.643509 108.795929,146.070114 
	C111.131729,145.688751 113.371750,144.720795 115.847305,143.955856 
	C116.980934,150.811050 111.315018,149.377075 107.779465,150.394424 
z"/>
<path fill="#E9F0F5" opacity="1.000000" stroke="none" 
	d="
M62.276283,168.587646 
	C61.100178,168.775131 59.923386,170.131485 59.156105,168.540573 
	C59.022549,168.263657 59.327072,167.511383 59.635117,167.331802 
	C60.891003,166.599762 61.787266,167.215759 62.276283,168.587646 
z"/>
<path fill="#FDECEC" opacity="1.000000" stroke="none" 
	d="
M346.003632,307.020996 
	C349.044861,307.585785 347.060913,311.402283 349.448700,312.398315 
	C349.205536,312.602875 348.828827,313.032806 348.738586,312.979370 
	C345.792572,311.233002 344.287842,316.393250 340.976349,314.223724 
	C342.565735,312.037689 344.173523,309.826324 345.914032,307.296631 
	C346.046753,306.978302 346.025116,307.016754 346.003632,307.020996 
z"/>
<path fill="#F9B6BF" opacity="1.000000" stroke="none" 
	d="
M372.453979,312.084991 
	C370.196075,309.292267 373.187134,309.667786 374.120605,309.209625 
	C375.225677,308.667175 376.648132,308.893158 377.299103,310.390350 
	C376.736389,310.600494 376.173676,310.810638 375.281555,311.011780 
	C374.389191,311.708893 373.624481,312.039215 372.453979,312.084991 
z"/>
<path fill="#FFFFFF" opacity="1.000000" stroke="none" 
	d="
M388.728394,330.789825 
	C389.017151,329.413269 389.637238,328.573883 391.022064,329.695435 
	C391.694855,330.240295 392.173370,331.030731 391.411957,331.719086 
	C391.168793,331.938873 390.268372,331.431671 389.361328,331.161743 
	C389.053925,331.066345 388.843140,330.874359 388.728394,330.789825 
z"/>
<path fill="#F9B6BF" opacity="1.000000" stroke="none" 
	d="
M271.301025,328.730896 
	C271.043823,327.579132 271.054108,326.210999 271.062408,324.432556 
	C272.450104,325.381653 272.042633,326.944336 271.301025,328.730896 
z"/>
<path fill="#FBFCFA" opacity="1.000000" stroke="none" 
	d="
M372.300232,312.292725 
	C372.881714,311.676331 373.613953,311.363525 374.649139,311.026733 
	C375.291992,313.376099 373.971680,313.143524 372.300232,312.292725 
z"/>
<path fill="#FDECEC" opacity="1.000000" stroke="none" 
	d="
M285.016296,332.981018 
	C284.886932,332.841827 284.735748,332.707947 284.584564,332.574066 
	C284.690277,332.617340 284.796021,332.660583 284.944092,332.867065 
	C284.986420,333.030273 284.994446,332.986298 285.016296,332.981018 
z"/>
<path fill="#8CBE78" opacity="1.000000" stroke="none" 
	d="
M211.967529,262.194153 
	C215.238098,261.273651 218.543869,263.902039 222.556335,262.818054 
	C219.217178,266.899292 215.738480,264.495422 211.967529,262.194153 
z"/>
<path fill="#FDECEC" opacity="1.000000" stroke="none" 
	d="
M220.010559,276.711365 
	C219.204285,276.937164 218.380295,276.895416 217.988358,276.048279 
	C217.905106,275.868347 218.087814,275.350037 218.224915,275.318115 
	C219.158371,275.100830 219.668793,275.664612 220.010559,276.711365 
z"/>
<path fill="#FDECEC" opacity="1.000000" stroke="none" 
	d="
M219.971466,277.026367 
	C220.654602,277.331787 221.702393,276.465210 222.115982,277.692688 
	C221.552994,277.595184 220.990005,277.497681 220.214813,277.191284 
	C220.002609,276.982391 219.985046,277.013611 219.971466,277.026367 
z"/>
<path fill="#8CBE78" opacity="1.000000" stroke="none" 
	d="
M202.947449,250.645340 
	C201.890137,250.949646 200.570816,251.861359 199.671951,250.461182 
	C199.565201,250.294891 200.012177,249.555389 200.360016,249.354874 
	C201.525528,248.683014 202.493134,248.801346 202.947449,250.645340 
z"/>
<path fill="#8CBE78" opacity="1.000000" stroke="none" 
	d="
M202.985779,251.013138 
	C203.785141,251.101364 204.617065,251.196457 204.821030,252.192810 
	C204.864166,252.403549 204.644592,252.839096 204.459946,252.897141 
	C203.401031,253.230026 203.059586,252.522324 202.955414,251.314453 
	C203.053024,250.954926 203.007965,250.993469 202.985779,251.013138 
z"/>
</svg>